# xmcd
#
# Track frame offsets:
#	150
#	16716
#	33668
#	54087
#	71124
#	91788
#	109529
#	122862
#	135996
#	157824
#	176862
#	196686
#
# Disc length: 2820 seconds
#
# Revision: 0
# Processed by: cddbd v1.5.2PL0 Copyright (c) Steve Scherf et al.
# Submitted via: EasyCDDAExtractor 12.1.0.1
#
DISCID=8e0b020c
DTITLE=Various Artist - 星光下的童话 电视原声带 Because of You
DYEAR=2010
DGENRE=Pop
TTITLE0=李国毅 - 爱是关键
TTITLE1=李国毅 - 因为你
TTITLE2=田中千绘 - 去年的星光
TTITLE3=赖雅妍 - 小雨心事
TTITLE4=Various Artist - 去年的星光(抒情演奏版)
TTITLE5=李国毅 - 老城外
TTITLE6=Various Artist - 爱是关键(抒情演奏版)
TTITLE7=Various Artist - 小雨心事(抒情演奏版)
TTITLE8=李国毅 - 你离开我的那一天
TTITLE9=Various Artist - 因为你(钢琴演奏版)
TTITLE10=李国毅+田中千绘 - 去年的星光(男女合唱版)
TTITLE11=Various Artist - 留不住的小雨
EXTD=
EXTT0=
EXTT1=
EXTT2=
EXTT3=
EXTT4=
EXTT5=
EXTT6=
EXTT7=
EXTT8=
EXTT9=
EXTT10=
EXTT11=
PLAYORDER=
